<?xml version="1.0" encoding="UTF-8" standalone="no"?><!-- Generator: Gravit.io --><svg xmlns="http://www.w3.org/2000/svg" xmlns:xlink="http://www.w3.org/1999/xlink" style="isolation:isolate" viewBox="0 0 1080 1080" width="1080pt" height="1080pt"><defs><clipPath id="_clipPath_FT8KUf4YF3VwAStG0ZslCm53eHaKLxJX"><rect width="1080" height="1080"/></clipPath></defs><g clip-path="url(#_clipPath_FT8KUf4YF3VwAStG0ZslCm53eHaKLxJX)"><rect width="1080" height="1080" style="fill:rgb(0,0,0)" fill-opacity="0"/><g><g><path d=" M 334.55 228.18 C 348.2 228.18 359.911 219.958 365.03 208.247 L 458.099 200.802 C 467.174 230.119 494.474 251.447 526.815 251.447 C 559.157 251.447 583.587 232.213 593.903 205.145 L 695.115 219.803 C 697.675 259.59 730.637 291.079 771.044 291.079 C 811.452 291.079 847.283 256.954 847.283 214.84 C 847.283 172.726 813.158 138.601 771.044 138.601 C 738.237 138.601 710.317 159.386 699.614 188.548 L 598.478 173.889 C 595.686 136.739 564.663 107.5 526.815 107.5 C 488.967 107.5 460.659 134.412 455.695 169.313 L 362.471 176.759 C 356.499 167.607 346.261 161.48 334.55 161.48 C 316.169 161.48 301.2 176.371 301.2 194.83 C 301.2 213.289 316.091 228.18 334.55 228.18 Z " fill="rgb(235,242,235)"/><path d=" M 1034.352 454.182 C 1032.723 454.182 1031.172 454.493 1029.544 454.648 L 983.319 372.669 C 991.618 363.673 996.659 351.651 996.659 338.467 C 996.659 310.468 973.935 287.744 945.936 287.744 C 917.938 287.744 895.214 310.468 895.214 338.467 C 895.214 366.465 917.938 389.189 945.936 389.189 C 949.349 389.189 952.684 388.879 955.941 388.181 L 1002.088 470.082 C 996.659 477.062 993.324 485.671 993.324 495.133 C 993.324 496.994 993.635 498.778 993.867 500.562 L 881.253 566.563 C 876.988 563.616 871.947 561.522 866.44 560.979 C 864.734 560.824 863.027 560.902 861.399 560.979 L 817.889 487.687 C 830.376 475.511 838.209 458.448 838.209 439.602 C 838.209 402.529 808.117 372.437 771.044 372.437 C 751.034 372.437 733.118 381.278 720.787 395.161 L 642.143 353.513 C 642.143 353.513 642.298 353.047 642.298 352.815 C 644.78 328.694 627.252 307.133 603.132 304.651 C 579.011 302.17 557.45 319.698 554.969 343.818 C 552.487 367.938 570.015 389.499 594.135 391.981 C 606.7 393.3 618.488 389.034 627.33 381.356 L 705.973 423.004 C 704.577 428.356 703.802 433.862 703.802 439.602 C 703.802 476.674 733.894 506.766 770.967 506.766 C 777.869 506.766 784.462 505.758 790.744 503.819 L 834.641 577.887 C 832.703 581.454 831.384 585.487 830.919 589.831 C 829.057 607.514 841.932 623.413 859.692 625.197 C 877.376 627.058 893.275 614.184 895.059 596.423 C 895.059 595.958 895.059 595.492 895.059 594.949 L 1009.611 527.785 C 1016.436 532.981 1024.89 536.161 1034.12 536.161 C 1056.766 536.161 1075.147 517.78 1075.147 495.133 C 1075.147 472.486 1056.766 454.105 1034.12 454.105 L 1034.352 454.182 Z " fill="rgb(235,242,235)"/><path d=" M 708.843 655.832 C 684.645 655.832 664.945 675.454 664.945 699.73 C 664.945 700.583 665.178 701.358 665.178 702.212 L 665.178 702.212 C 665.178 702.212 537.13 759.992 537.13 759.992 C 531.857 754.253 525.186 749.677 517.741 746.885 L 517.741 746.885 C 517.741 746.885 520.921 672.662 520.921 672.662 C 582.502 667.311 630.742 615.657 630.742 552.681 C 630.742 486.136 576.84 432.234 510.296 432.234 C 489.743 432.234 470.431 437.353 453.523 446.504 L 428.317 411.371 C 442.665 396.325 451.429 375.927 451.429 353.435 C 451.429 307.056 413.892 269.44 367.512 269.44 C 333.542 269.44 304.303 289.605 291.04 318.612 L 209.45 298.757 L 209.372 298.757 C 206.425 278.437 189.13 262.848 168.034 262.848 C 144.844 262.848 126.075 281.617 126.075 304.806 C 126.075 313.648 128.79 321.792 133.443 328.539 L 73.336 419.204 L 73.336 419.204 C 67.829 417.188 61.857 415.947 55.575 415.947 C 27.577 415.947 4.853 438.671 4.853 466.669 C 4.853 494.668 27.577 517.392 55.575 517.392 C 71.862 517.392 86.288 509.714 95.517 497.847 L 95.517 497.847 C 95.517 497.847 173.308 511.963 173.308 511.963 L 173.308 511.963 C 176.643 536.704 197.816 555.783 223.487 555.783 C 251.486 555.783 274.21 533.059 274.21 505.06 C 274.21 477.062 251.486 454.337 223.487 454.337 C 204.176 454.337 187.423 465.118 178.814 481.017 L 178.814 481.017 C 178.814 481.017 106.143 467.91 106.143 467.91 L 106.143 467.91 C 106.143 467.91 106.143 467.135 106.143 466.747 C 106.143 456.509 103.118 447.047 97.922 439.059 L 97.922 439.059 C 97.922 439.059 159.58 345.989 159.58 345.989 C 162.295 346.532 165.087 346.843 167.956 346.843 C 181.994 346.843 194.326 339.863 201.926 329.315 L 201.926 329.315 C 201.926 329.315 283.362 349.247 283.362 349.247 L 283.362 349.247 C 283.284 350.798 283.284 352.117 283.284 353.59 C 283.284 399.892 320.9 437.508 367.279 437.508 C 379.921 437.508 391.865 434.793 402.491 429.752 L 427.774 464.963 C 404.197 486.834 389.538 518.09 389.538 552.836 C 389.538 612.322 432.505 661.571 489.2 671.499 L 486.02 745.721 C 464.847 751.694 449.335 771.16 449.335 794.195 C 449.335 822.038 471.904 844.607 499.748 844.607 C 527.591 844.607 550.16 822.038 550.16 794.195 C 550.16 792.411 550.083 790.627 549.85 788.843 L 677.665 731.063 L 677.665 731.063 C 685.576 738.819 696.434 743.705 708.455 743.705 C 732.653 743.705 752.353 724.083 752.353 699.807 C 752.353 675.532 732.731 655.91 708.455 655.91 L 708.843 655.832 Z  M 388.685 409.897 C 382.093 412.456 374.957 413.852 367.512 413.852 C 334.55 413.852 307.793 387.483 307.095 354.831 C 307.017 354.288 307.017 353.901 307.017 353.358 C 307.017 342.81 309.731 332.805 314.463 324.196 C 324.778 305.505 344.632 292.863 367.512 292.863 C 400.862 292.863 428.007 319.93 428.007 353.358 C 428.007 367.938 422.811 381.278 414.279 391.671 C 407.609 399.892 398.845 406.252 388.685 409.897 L 388.685 409.897 Z  M 423.509 552.603 C 423.509 529.258 432.815 508.007 447.862 492.341 C 455.23 484.74 463.838 478.536 473.456 473.96 C 484.624 468.686 497.111 465.738 510.296 465.738 C 558.148 465.738 597.083 504.595 597.083 552.525 C 597.083 596.268 564.586 632.565 522.472 638.459 C 518.439 639.08 514.484 639.312 510.373 639.312 C 503.703 639.312 497.266 638.537 490.984 637.063 C 452.36 628.299 423.586 593.708 423.586 552.525 L 423.509 552.603 Z " fill="rgb(235,242,235)"/><path d=" M 377.982 691.276 C 377.982 651.334 345.563 618.915 305.544 618.915 C 276.459 618.915 251.331 636.055 240.007 660.796 L 149.885 641.019 L 149.885 641.019 C 147.326 615.425 125.687 595.337 99.395 595.337 C 71.397 595.337 48.673 618.062 48.673 646.06 C 48.673 674.058 71.397 696.783 99.395 696.783 C 118.009 696.783 134.219 686.7 143.06 671.731 L 143.06 671.731 C 143.06 671.731 233.027 691.509 233.027 691.509 C 233.182 726.487 258.001 755.571 291.118 762.241 L 293.057 853.682 C 267.773 860.972 249.314 884.239 249.314 911.85 C 249.314 945.355 276.459 972.5 309.964 972.5 C 343.469 972.5 370.614 945.355 370.614 911.85 C 370.614 883.386 350.992 859.576 324.545 853.061 L 324.545 853.061 C 324.545 853.061 322.606 761.466 322.606 761.466 C 354.25 753.787 377.827 725.246 377.827 691.198 L 377.982 691.276 Z  M 322.373 740.603 C 317.1 742.464 311.438 743.395 305.544 743.395 C 300.425 743.395 295.539 742.619 290.885 741.378 C 270.72 735.406 255.596 717.646 253.657 696.085 C 253.502 694.456 253.425 692.905 253.425 691.276 C 253.425 681.814 255.984 672.895 260.405 665.294 C 269.324 649.705 286.232 639.157 305.544 639.157 C 334.395 639.157 357.662 662.502 357.662 691.276 C 357.662 714.233 342.926 733.7 322.373 740.603 L 322.373 740.603 Z " fill="rgb(235,242,235)"/></g></g></g></svg>