<?xml version="1.0" encoding="UTF-8" standalone="no"?><!-- Generator: Gravit.io --><svg xmlns="http://www.w3.org/2000/svg" xmlns:xlink="http://www.w3.org/1999/xlink" style="isolation:isolate" viewBox="0 0 1080 1080" width="1080pt" height="1080pt"><defs><clipPath id="_clipPath_PR7mFbnAWL7USFis0nkaQWtCPSDdvr0t"><rect width="1080" height="1080"/></clipPath></defs><g clipPath="url(#_clipPath_PR7mFbnAWL7USFis0nkaQWtCPSDdvr0t)"><g><path d=" M 540 831.818 C 701.166 831.818 831.818 701.166 831.818 540 C 831.818 378.833 701.166 248.182 540 248.182 C 378.833 248.182 248.182 378.833 248.182 540 C 248.182 701.166 378.833 831.818 540 831.818 Z  M 540 734.545 C 647.443 734.545 734.545 647.443 734.545 540 C 734.545 432.555 647.443 345.455 540 345.455 C 432.555 345.455 345.455 432.555 345.455 540 C 345.455 647.443 432.555 734.545 540 734.545 Z " fill-rule="evenodd" fill="rgb(235,242,235)"/><path d=" M 831.818 199.545 C 804.956 199.545 783.182 221.321 783.182 248.182 C 783.182 275.043 804.956 296.818 831.818 296.818 C 858.68 296.818 880.455 275.043 880.455 248.182 C 880.455 221.321 858.68 199.545 831.818 199.545 Z " fill="rgb(235,242,235)"/><path d=" M 36.806 164.336 C 5 226.759 5 308.476 5 471.909 L 5 608.091 C 5 771.524 5 853.243 36.806 915.662 C 64.784 970.573 109.426 1015.216 164.336 1043.192 C 226.759 1075 308.476 1075 471.909 1075 L 608.091 1075 C 771.524 1075 853.243 1075 915.662 1043.192 C 970.573 1015.216 1015.216 970.573 1043.192 915.662 C 1075 853.243 1075 771.524 1075 608.091 L 1075 471.909 C 1075 308.476 1075 226.759 1043.192 164.336 C 1015.216 109.426 970.573 64.784 915.662 36.806 C 853.243 5 771.524 5 608.091 5 L 471.909 5 C 308.476 5 226.759 5 164.336 36.806 C 109.426 64.784 64.784 109.426 36.806 164.336 Z  M 608.091 102.273 L 471.909 102.273 C 388.587 102.273 331.946 102.349 288.165 105.925 C 245.518 109.41 223.71 115.725 208.496 123.477 C 171.89 142.129 142.129 171.89 123.477 208.496 C 115.725 223.71 109.41 245.518 105.925 288.165 C 102.349 331.946 102.273 388.587 102.273 471.909 L 102.273 608.091 C 102.273 691.415 102.349 748.052 105.925 791.834 C 109.41 834.483 115.725 856.292 123.477 871.505 C 142.129 908.109 171.89 937.87 208.496 956.522 C 223.71 964.274 245.518 970.592 288.165 974.075 C 331.946 977.649 388.587 977.727 471.909 977.727 L 608.091 977.727 C 691.415 977.727 748.052 977.649 791.834 974.075 C 834.483 970.592 856.292 964.274 871.505 956.522 C 908.109 937.87 937.87 908.109 956.522 871.505 C 964.274 856.292 970.592 834.483 974.075 791.834 C 977.649 748.052 977.727 691.415 977.727 608.091 L 977.727 471.909 C 977.727 388.587 977.649 331.946 974.075 288.165 C 970.592 245.518 964.274 223.71 956.522 208.496 C 937.87 171.89 908.109 142.129 871.505 123.477 C 856.292 115.725 834.483 109.41 791.834 105.925 C 748.052 102.349 691.415 102.273 608.091 102.273 Z " fill-rule="evenodd" fill="rgb(235,242,235)"/></g></g></svg>