<?xml version="1.0" encoding="UTF-8" standalone="no"?><!-- Generator: Gravit.io --><svg xmlns="http://www.w3.org/2000/svg" xmlns:xlink="http://www.w3.org/1999/xlink" style="isolation:isolate" viewBox="0 0 1080 1080" width="1080pt" height="1080pt"><defs><clipPath id="_clipPath_UrACJJb6ReKDFPevqgFwU63Zr6ZHr1yu"><rect width="1080" height="1080"/></clipPath></defs><g clipPath="url(#_clipPath_UrACJJb6ReKDFPevqgFwU63Zr6ZHr1yu)"><g><path d=" M 275 347.273 C 314.915 347.273 347.273 314.915 347.273 275 C 347.273 235.085 314.915 202.727 275 202.727 C 235.085 202.727 202.727 235.085 202.727 275 C 202.727 314.915 235.085 347.273 275 347.273 Z " fill="rgb(235,242,235)"/><path d=" M 202.727 443.636 C 202.727 417.027 224.299 395.455 250.909 395.455 L 299.091 395.455 C 325.701 395.455 347.273 417.026 347.273 443.636 L 347.273 829.091 C 347.273 855.702 325.701 877.273 299.091 877.273 L 250.909 877.273 C 224.299 877.273 202.727 855.702 202.727 829.091 L 202.727 443.636 Z " fill="rgb(235,242,235)"/><path d=" M 491.818 877.273 L 540 877.273 C 566.611 877.273 588.182 855.702 588.182 829.091 L 588.182 612.273 C 588.182 540 732.727 491.818 732.727 588.182 L 732.727 829.11 C 732.727 855.721 754.298 877.273 780.909 877.273 L 829.091 877.273 C 855.702 877.273 877.273 855.702 877.273 829.091 L 877.273 540 C 877.273 443.636 805 395.455 708.636 395.455 C 612.273 395.455 588.182 467.727 588.182 467.727 L 588.182 443.636 C 588.182 417.026 566.611 395.455 540 395.455 L 491.818 395.455 C 465.207 395.455 443.636 417.027 443.636 443.636 L 443.636 829.091 C 443.636 855.702 465.207 877.273 491.818 877.273 Z " fill="rgb(235,242,235)"/><path d=" M 925.455 10 C 1005.287 10 1070 74.715 1070 154.545 L 1070 925.455 C 1070 1005.287 1005.287 1070 925.455 1070 L 154.545 1070 C 74.715 1070 10 1005.287 10 925.455 L 10 154.545 C 10 74.715 74.715 10 154.545 10 L 925.455 10 Z  M 925.455 106.364 C 952.065 106.364 973.636 127.936 973.636 154.545 L 973.636 925.455 C 973.636 952.065 952.065 973.636 925.455 973.636 L 154.545 973.636 C 127.936 973.636 106.364 952.065 106.364 925.455 L 106.364 154.545 C 106.364 127.936 127.936 106.364 154.545 106.364 L 925.455 106.364 Z " fill-rule="evenodd" fill="rgb(235,242,235)"/></g></g></svg>