<?xml version="1.0" encoding="UTF-8" standalone="no"?><!-- Generator: Gravit.io --><svg xmlns="http://www.w3.org/2000/svg" xmlns:xlink="http://www.w3.org/1999/xlink" style="isolation:isolate" viewBox="0 0 1080 1080" width="1080pt" height="1080pt"><defs><clipPath id="_clipPath_UrCgrAoXS5iE3CIDNEre9xUee12bCp3R"><rect width="1080" height="1080"/></clipPath></defs><g clip-path="url(#_clipPath_UrCgrAoXS5iE3CIDNEre9xUee12bCp3R)"><rect width="1080" height="1080" style="fill:rgb(204,31,53)" fill-opacity="0"/><g><path d=" M 550.174 633.425 C 543.809 633.43 537.741 633.403 531.675 633.301 C 530.589 633.283 529.508 632.96 528.328 632.529 C 528.28 630.906 528.373 629.533 528.373 628.159 C 528.381 600.156 528.379 572.152 528.379 544.149 C 528.379 542.916 528.379 541.684 528.379 540.251 C 529.83 540.187 530.946 540.095 532.062 540.094 C 545.49 540.084 558.918 540.103 572.346 540.08 C 577.675 540.071 582.869 540.75 587.824 542.806 C 599.326 547.579 604.866 558.44 601.893 570.51 C 600.666 575.493 597.847 579.448 593.707 582.47 C 592.806 583.128 591.916 583.802 590.936 584.532 C 593.277 585.785 595.461 586.804 597.491 588.07 C 604.143 592.217 607.543 598.272 607.64 606.11 C 607.668 608.396 607.679 610.732 607.266 612.966 C 605.899 620.369 601.545 625.594 594.91 628.959 C 589.501 631.703 583.678 633.039 577.668 633.185 C 568.607 633.405 559.538 633.322 550.174 633.425 Z  M 561.736 594.739 C 557.419 594.739 553.102 594.739 548.669 594.739 C 548.669 601.78 548.669 608.445 548.669 615.22 C 557.96 615.22 566.993 615.26 576.025 615.18 C 577.481 615.167 578.973 614.739 580.379 614.288 C 584.932 612.828 587.292 609.673 587.337 605.18 C 587.381 600.707 585.036 597.522 580.493 596.002 C 579.417 595.641 578.283 595.303 577.162 595.25 C 572.252 595.02 567.337 594.899 561.736 594.739 Z  M 548.409 574.784 C 548.469 575.666 548.53 576.548 548.583 577.32 C 548.989 577.51 549.193 577.69 549.395 577.688 C 556.943 577.606 564.494 577.597 572.037 577.343 C 573.8 577.283 575.637 576.596 577.262 575.823 C 580.714 574.182 582.202 571.256 582.111 567.455 C 582.023 563.759 580.377 560.96 576.972 559.655 C 574.672 558.773 572.116 558.27 569.65 558.167 C 564.393 557.947 559.121 558.098 553.855 558.097 C 552.167 558.096 550.478 558.097 548.409 558.097 C 548.409 563.671 548.409 568.903 548.409 574.784 Z " fill="rgb(255,253,253)"/><path d=" M 684.495 599.459 C 683.01 600.469 684.061 601.17 684.508 601.837 C 687.193 605.84 689.917 609.817 692.633 613.799 C 696.319 619.204 700.015 624.603 703.693 630.013 C 704.312 630.924 704.863 631.88 705.66 633.16 C 704.348 633.232 703.478 633.32 702.607 633.322 C 696.637 633.334 690.665 633.244 684.697 633.374 C 682.637 633.419 681.38 632.797 680.229 631.041 C 674.756 622.69 669.137 614.435 663.567 606.148 C 662.993 605.295 662.399 604.455 661.822 603.621 C 656.471 603.621 651.22 603.621 645.653 603.621 C 645.653 613.466 645.653 623.172 645.653 633.101 C 638.74 633.101 632.14 633.101 625.532 633.101 C 624.852 630.681 624.721 543.89 625.457 540.086 C 626.406 540.086 627.416 540.086 628.427 540.086 C 641.86 540.086 655.295 539.972 668.726 540.155 C 672.82 540.211 677.001 540.685 680.972 541.663 C 694.634 545.028 702.873 555.49 703.187 569.531 C 703.499 583.435 697.747 593.651 684.495 599.459 Z  M 680.562 564.876 C 677.661 560.337 673.169 558.862 668.156 558.752 C 661.274 558.602 654.386 558.697 647.501 558.703 C 646.958 558.704 646.414 558.831 645.922 558.893 C 645.281 563.111 645.425 582.579 646.083 584.968 C 654.105 584.968 662.15 585.362 670.138 584.859 C 678.455 584.334 683.056 578.196 682.076 569.95 C 681.891 568.388 681.246 566.881 680.562 564.876 Z " fill="rgb(254,252,252)"/><path d=" M 184.67 610.83 C 189.093 617.312 193.372 623.663 197.65 630.016 C 198.269 630.937 198.882 631.862 199.721 633.12 C 191.567 633.12 183.855 633.12 175.709 633.12 C 170.474 625.357 165.057 617.323 159.386 608.92 C 158.309 607.309 157.552 606.016 156.636 604.849 C 156.187 604.276 155.451 603.561 154.831 603.548 C 149.821 603.443 144.807 603.489 139.804 603.489 C 139.804 605.244 139.804 606.61 139.804 607.976 C 139.752 615.076 139.699 622.176 139.65 629.276 C 139.641 630.508 139.649 631.74 139.649 633.145 C 132.721 633.145 126.123 633.145 119.021 633.145 C 119.021 624.484 119.021 615.824 118.957 606.865 C 118.942 605.309 119.036 604.052 119.036 602.795 C 119.045 583.307 119.043 563.818 119.043 544.33 C 119.043 543.083 119.043 541.837 119.043 540.365 C 120.085 540.261 120.954 540.1 121.823 540.099 C 135.58 540.083 149.336 540.085 163.093 540.09 C 169.238 540.092 175.216 541.046 180.792 543.713 C 190.886 548.543 196.312 556.636 196.955 567.791 C 197.139 570.974 197.084 574.244 196.568 577.38 C 194.94 587.266 189.292 594.232 180.354 598.611 C 179.454 599.053 178.55 599.489 177.263 600.114 C 179.774 603.775 182.15 607.238 184.67 610.83 Z  M 170.307 560.827 C 167.902 560.14 165.515 558.944 163.09 558.862 C 155.533 558.606 147.962 558.769 140.397 558.79 C 140.217 558.791 140.039 559.03 139.86 559.159 C 139.285 565.353 139.51 582.692 140.235 585.211 C 146.269 585.211 152.343 585.231 158.417 585.198 C 160.363 585.188 162.324 585.161 164.252 584.926 C 170.302 584.19 174.393 580.839 175.782 575.626 C 177.322 569.85 175.55 564.708 170.307 560.827 Z " fill="rgb(254,253,253)"/><path d=" M 98.637 618.914 C 98.526 619.732 98.353 620.252 98.064 620.928 C 96.832 621.889 95.732 622.716 94.598 623.496 C 76.93 635.642 57.883 638.988 37.768 631.018 C 21.874 624.719 12.925 612.258 10.232 595.465 C 7.921 581.06 10.839 567.75 20.096 556.287 C 30.951 542.846 45.478 537.578 62.434 538.33 C 73.478 538.819 83.675 541.827 92.477 548.792 C 93.357 549.488 94.192 550.239 95.284 551.165 C 90.933 556.427 86.719 561.523 82.411 566.732 C 80.73 565.497 79.282 564.399 77.8 563.349 C 70.507 558.183 62.328 556.308 53.613 557.709 C 42.602 559.479 33.698 569.05 31.637 580.589 C 30.627 586.245 30.985 591.794 32.772 597.24 C 36.721 609.272 47.363 616.758 60.02 616.396 C 65.826 616.231 71.39 615.118 76.518 612.179 C 78.11 611.267 78.779 610.201 78.707 608.345 C 78.571 604.819 78.668 601.285 78.668 597.484 C 71.713 597.484 65.09 597.484 58.557 597.484 C 57.738 594.84 57.613 583.658 58.311 579.768 C 71.54 579.768 84.802 579.768 98.575 579.768 C 98.575 592.77 98.575 605.693 98.637 618.914 Z " fill="rgb(254,252,252)"/><path d=" M 1065.811 551.228 C 1065.811 578.655 1065.811 605.737 1065.811 633.074 C 1058.964 633.074 1052.284 633.074 1045.264 633.074 C 1045.264 620.726 1045.264 608.497 1045.264 596.085 C 1032.485 596.085 1020.044 596.085 1007.281 596.085 C 1007.281 608.49 1007.281 620.718 1007.281 633.135 C 1000.357 633.135 993.75 633.135 986.914 633.135 C 986.914 602.264 986.914 571.44 986.914 540.106 C 990.193 540.099 993.467 540.09 996.741 540.086 C 1000.064 540.083 1003.387 540.085 1007.163 540.085 C 1007.345 544.158 1007.227 548.128 1007.247 552.09 C 1007.268 556.223 1007.252 560.356 1007.252 564.489 C 1007.252 568.478 1007.252 572.468 1007.252 576.639 C 1020.037 576.639 1032.478 576.639 1045.257 576.639 C 1045.257 564.464 1045.257 552.466 1045.257 540.28 C 1052.192 540.28 1058.79 540.28 1065.811 540.28 C 1065.811 543.848 1065.811 547.366 1065.811 551.228 Z " fill="rgb(254,252,252)"/><path d=" M 287.48 616.986 C 287.546 622.527 287.546 627.761 287.546 633.156 C 263.614 633.156 240.173 633.156 216.274 633.156 C 216.274 626.486 216.274 619.88 216.212 612.966 C 216.197 611.398 216.285 610.139 216.286 608.879 C 216.294 587.298 216.292 565.716 216.292 544.134 C 216.292 542.903 216.292 541.671 216.292 540.268 C 239.894 540.268 263.14 540.268 286.602 540.268 C 286.602 546.18 286.602 551.979 286.602 558.229 C 282.574 558.412 278.482 558.29 274.397 558.312 C 270.265 558.334 266.132 558.316 261.999 558.316 C 257.867 558.316 253.734 558.316 249.601 558.316 C 245.489 558.316 241.376 558.316 237.028 558.316 C 237.028 564.708 237.028 570.82 237.028 577.225 C 251.569 577.225 265.992 577.225 280.646 577.225 C 280.646 583.301 280.646 589.095 280.646 595.403 C 275.922 595.467 271.154 595.424 266.389 595.432 C 261.452 595.439 256.516 595.433 251.58 595.433 C 246.784 595.433 241.989 595.433 236.994 595.433 C 236.994 602.009 236.994 608.273 236.994 614.959 C 238.189 615.004 239.396 615.087 240.602 615.088 C 254.952 615.098 269.301 615.095 283.651 615.1 C 284.569 615.1 285.534 614.968 286.384 615.217 C 286.832 615.348 287.077 616.17 287.48 616.986 Z " fill="rgb(255,254,254)"/><path d=" M 393.255 623.618 C 394.586 626.882 395.766 629.928 397.03 633.192 C 389.697 633.192 382.747 633.192 375.708 633.192 C 374.222 629.648 372.77 626.184 371.162 622.262 C 369.714 618.669 368.42 615.535 367.222 612.631 C 353.767 612.631 340.768 612.631 327.594 612.631 C 326.733 614.986 325.916 617.222 325.099 619.457 C 323.15 623.963 321.201 628.469 319.174 633.156 C 312.463 633.156 305.644 633.156 298.359 633.156 C 300.446 628.146 302.411 623.431 304.387 618.475 C 306.927 612.467 309.505 606.72 311.977 600.929 C 320.305 581.419 328.594 561.893 336.905 542.376 C 337.306 541.434 337.773 540.521 338.241 539.525 C 344.615 539.525 350.9 539.525 357.309 539.525 C 369.256 567.518 381.18 595.459 393.255 623.618 Z  M 348.164 594.174 C 351.887 594.174 355.61 594.174 359.811 594.174 C 355.616 583.961 351.668 574.35 347.475 564.143 C 343.243 574.403 339.195 584.033 335.198 594.174 C 339.698 594.174 343.587 594.174 348.164 594.174 Z " fill="rgb(254,253,253)"/><path d=" M 958.8 560.086 C 957.366 562.156 956.067 564.019 954.724 565.945 C 952.292 564.511 950.156 563.194 947.966 561.974 C 943.522 559.498 938.829 557.717 933.753 557.036 C 930.402 556.586 927.116 556.751 923.914 557.91 C 920.71 559.071 918.692 561.252 918.451 564.721 C 918.211 568.161 919.685 570.863 922.85 572.216 C 926.316 573.698 929.915 574.889 933.507 576.05 C 938.631 577.705 943.88 579.003 948.922 580.868 C 952.224 582.089 955.433 583.774 958.368 585.726 C 964.494 589.801 967.795 595.71 967.959 603.088 C 968.037 606.612 967.867 610.238 967.113 613.664 C 965.435 621.286 960.679 626.707 953.866 630.375 C 949.666 632.637 945.134 633.965 940.433 634.411 C 923.816 635.988 908.805 631.936 895.797 621.21 C 895.355 620.846 894.89 620.511 894.14 619.936 C 898.26 614.985 902.184 610.268 906.337 605.277 C 907.541 606.151 908.623 606.932 909.7 607.721 C 915.908 612.268 922.656 615.511 930.406 616.384 C 934.333 616.827 938.201 616.704 941.944 615.307 C 944.288 614.432 946.178 613.002 947.142 610.601 C 948.549 607.1 947.534 603.198 944.199 601.292 C 941.343 599.661 938.206 598.418 935.062 597.417 C 929.494 595.647 923.753 594.407 918.228 592.525 C 914.68 591.317 911.211 589.643 908.019 587.673 C 901.952 583.926 898.771 578.183 898.292 571.122 C 898.061 567.715 897.978 564.166 898.657 560.852 C 900.849 550.148 907.795 543.345 918.03 540.548 C 935.198 535.858 950.88 539.672 965.396 550.43 C 963.161 553.699 961.048 556.789 958.8 560.086 Z " fill="rgb(254,253,253)"/><path d=" M 810.563 582.918 C 810.563 599.771 810.563 616.279 810.563 633.069 C 807.087 633.571 803.794 633.261 800.525 633.315 C 797.202 633.37 793.878 633.327 790.14 633.327 C 789.844 629.159 790.047 625.073 790.01 621 C 789.972 616.869 790.002 612.737 790.002 608.606 C 790.002 604.474 790.002 600.343 790.002 596.212 C 790.002 592.195 790.002 588.179 790.002 584.162 C 790.002 580.031 790.002 575.899 790.002 571.768 C 790.002 567.654 790.002 563.541 790.002 558.996 C 780.429 558.996 771.096 558.996 761.59 558.996 C 761.59 552.537 761.59 546.512 761.59 540.286 C 787.377 540.286 813.007 540.286 838.807 540.286 C 838.807 546.489 838.807 552.509 838.807 558.901 C 829.424 558.901 820.191 558.901 810.563 558.901 C 810.563 567.036 810.563 574.805 810.563 582.918 Z " fill="rgb(255,253,253)"/><path d=" M 442.777 626.653 C 442.734 628.897 442.619 630.828 442.504 632.741 C 440.068 633.466 427.163 633.637 422.08 632.974 C 422.08 630.772 422.08 628.509 422.017 625.929 C 422.006 624.699 422.102 623.786 422.102 622.872 C 422.111 602.685 422.111 582.497 422.102 562.309 C 422.102 561.306 422.004 560.303 421.937 559.006 C 412.502 559.006 403.255 559.006 393.764 559.006 C 393.764 552.688 393.764 546.674 393.764 540.649 C 396.205 539.932 463.156 539.607 470.836 540.305 C 470.836 546.293 470.836 552.313 470.836 558.587 C 467.941 559.325 464.864 558.813 461.833 558.902 C 458.738 558.992 455.639 558.922 452.542 558.922 C 449.458 558.922 446.373 558.922 443.029 558.922 C 442.896 559.935 442.686 560.792 442.685 561.648 C 442.678 583.212 442.694 604.776 442.777 626.653 Z " fill="rgb(254,253,253)"/><path d=" M 747.416 449.878 C 747.352 446.858 747.352 444.13 747.352 441.185 C 748.542 441.059 749.406 440.889 750.27 440.887 C 760.803 440.869 771.335 440.881 781.867 440.872 C 785.68 440.869 789.384 441.474 792.972 442.765 C 798.253 444.664 802.402 447.854 804.881 453.279 C 805.342 456.621 806.039 459.82 805.866 462.972 C 805.566 468.419 802.848 472.751 798.409 475.949 C 797.307 476.743 796.143 477.452 794.671 478.421 C 796.659 479.32 798.376 480.035 800.04 480.858 C 811.457 486.504 811.971 497.152 809.292 504.678 C 807.549 509.576 803.961 512.889 799.397 515.197 C 794.698 517.573 789.618 518.609 784.435 518.684 C 772.617 518.854 760.795 518.764 748.974 518.768 C 748.646 518.768 748.318 518.641 747.481 518.469 C 747.481 495.748 747.481 472.959 747.416 449.878 Z  M 756.333 450.928 C 756.333 459.038 756.333 467.147 756.333 475.289 C 765.739 475.289 774.778 475.422 783.808 475.214 C 786.772 475.145 789.573 473.875 792.101 472.144 C 798.908 467.483 798.517 455.71 792.525 452.116 C 790.115 451.14 787.776 449.66 785.278 449.304 C 781.115 448.71 776.851 448.758 772.626 448.68 C 767.821 448.591 763.012 448.662 758.205 448.659 C 757.139 448.659 755.99 448.552 756.333 450.928 Z  M 767.04 483.348 C 763.545 483.352 760.049 483.357 756.539 483.362 C 756.539 492.738 756.539 501.602 756.539 510.531 C 766.715 510.531 776.663 510.647 786.605 510.467 C 790.046 510.404 793.303 509.165 796.271 507.257 C 803.219 502.792 804.235 490.313 794.807 486.088 C 791.943 484.805 788.703 483.982 785.576 483.749 C 779.65 483.309 773.68 483.449 767.04 483.348 Z " fill="rgb(253,249,250)"/><path d=" M 915.514 460.637 C 915.453 454.027 915.453 447.733 915.453 441.296 C 918.177 440.504 920.691 440.848 923.136 440.987 C 923.935 441.033 924.815 442.026 925.417 442.778 C 930.509 449.134 935.545 455.534 940.864 462.27 C 951.477 475.787 961.824 488.955 972.171 502.123 C 972.799 500.787 972.887 499.69 972.889 498.593 C 972.903 492.528 972.919 486.463 972.889 480.398 C 972.863 474.911 972.779 469.424 972.721 463.937 C 972.788 457.631 972.856 451.325 972.919 445.019 C 972.932 443.778 972.921 442.537 972.921 441.085 C 975.887 441.085 978.557 441.085 981.563 441.085 C 981.563 448.8 981.563 456.348 981.627 464.223 C 981.642 467.07 981.554 469.589 981.551 472.108 C 981.538 486.215 981.545 500.322 981.545 514.429 C 981.545 515.68 981.545 516.93 981.545 518.596 C 979.357 518.64 977.317 518.903 975.355 518.624 C 974.427 518.491 973.494 517.443 972.824 516.602 C 967.032 509.341 961.299 502.033 955.549 494.739 C 946.746 483.573 937.943 472.407 928.873 460.892 C 927.347 458.933 926.088 457.323 924.829 455.712 C 924.611 455.816 924.393 455.92 924.176 456.024 C 924.256 457.677 924.336 459.33 924.416 460.983 C 924.362 462.24 924.262 463.496 924.261 464.753 C 924.251 481.374 924.254 497.995 924.254 514.616 C 924.254 515.853 924.254 517.09 924.254 518.531 C 921.327 518.531 918.744 518.531 915.657 518.531 C 915.52 499.354 915.668 480.152 915.514 460.637 Z " fill="rgb(251,247,247)"/><path d=" M 856.261 541.037 C 856.572 540.523 856.843 540.182 857.115 540.181 C 863.525 540.151 869.936 540.158 876.579 540.158 C 876.579 571.195 876.579 602.081 876.579 633.147 C 869.855 633.147 863.255 633.147 856.22 633.147 C 856.22 602.517 856.22 571.943 856.261 541.037 Z " fill="rgb(255,253,253)"/><path d=" M 723.24 589.807 C 723.24 573.188 723.24 556.913 723.24 540.683 C 725.743 539.966 739.125 539.792 743.641 540.407 C 743.641 571.172 743.641 601.965 743.641 632.764 C 741.281 633.457 728.21 633.634 723.24 632.98 C 723.24 618.741 723.24 604.446 723.24 589.807 Z " fill="rgb(255,253,253)"/><path d=" M 231.287 515.332 C 231.236 516.544 231.184 517.439 231.121 518.529 C 212.214 518.529 193.469 518.529 174.518 518.529 C 174.518 492.749 174.518 467.101 174.518 441.447 C 176.851 440.74 225.655 440.513 230.508 441.22 C 230.508 443.539 230.508 445.893 230.508 448.765 C 225.272 448.773 220.049 448.783 214.825 448.787 C 209.662 448.791 204.499 448.788 199.336 448.788 C 194.084 448.788 188.832 448.788 183.376 448.788 C 183.376 457.783 183.376 466.432 183.376 475.418 C 197.408 475.418 211.348 475.418 225.53 475.418 C 225.53 478.204 225.53 480.659 225.53 483.445 C 211.576 483.445 197.63 483.445 183.776 483.445 C 183.024 486.226 182.8 503.197 183.378 510.557 C 187.273 510.719 191.241 510.606 195.201 510.626 C 199.217 510.646 203.233 510.63 207.248 510.63 C 211.149 510.63 215.05 510.63 218.951 510.63 C 222.937 510.63 226.922 510.63 231.287 510.63 C 231.287 512.323 231.287 513.669 231.287 515.332 Z " fill="rgb(254,249,249)"/><path d=" M 316.152 440.182 C 317.717 440.182 318.972 440.182 320.498 440.182 C 332.251 466.195 343.982 492.158 355.993 518.742 C 353.938 518.742 352.505 518.742 351.072 518.742 C 349.595 518.742 348.117 518.742 346.451 518.742 C 343.385 511.847 340.365 505.053 337.318 498.198 C 323.223 498.198 309.236 498.198 294.955 498.198 C 291.939 504.9 288.893 511.669 285.794 518.557 C 282.882 518.557 280.054 518.557 276.7 518.557 C 288.514 492.401 300.246 466.424 312.099 440.182 C 313.37 440.182 314.606 440.182 316.152 440.182 Z  M 333.138 489.813 C 332.944 488.956 332.884 488.039 332.535 487.25 C 327.435 475.715 322.297 464.195 317.159 452.676 C 316.952 452.21 316.651 451.786 316.068 450.78 C 310.149 464.108 304.291 476.802 298.597 489.986 C 310.312 489.986 321.437 489.986 333.138 489.813 Z " fill="rgb(253,249,249)"/><path d=" M 652.328 443.937 C 652.963 442.621 653.574 441.557 654.274 440.338 C 656.87 440.338 659.559 440.338 662.522 440.338 C 663.094 441.525 663.721 442.826 664.535 444.298 C 665.131 445.529 665.493 446.613 665.96 447.649 C 676.055 470.019 686.164 492.383 696.262 514.752 C 696.773 515.883 697.218 517.045 697.821 518.499 C 694.654 518.499 691.756 518.499 688.406 518.499 C 685.507 511.98 682.495 505.207 679.414 498.277 C 665.316 498.277 651.248 498.277 636.975 498.277 C 633.937 505.028 630.889 511.798 627.824 518.608 C 624.91 518.608 622.179 518.608 618.925 518.608 C 619.449 517.286 619.845 516.156 620.336 515.069 C 630.905 491.654 641.485 468.244 652.061 444.832 C 652.155 444.624 652.224 444.405 652.328 443.937 Z  M 673.566 484.883 C 668.548 473.644 663.53 462.404 658.235 450.545 C 652.213 464.072 646.356 476.798 640.637 490.021 C 652.615 490.01 663.998 490.041 675.766 490 C 674.928 488.074 674.34 486.722 673.566 484.883 Z " fill="rgb(253,249,249)"/><path d=" M 848.577 456.408 C 851.072 450.932 853.547 445.699 856.082 440.338 C 858.78 440.338 861.489 440.338 864.425 440.338 C 866.994 445.962 869.591 451.645 872.341 457.507 C 876.786 467.322 881.056 476.97 885.377 486.594 C 889.652 496.116 893.983 505.613 898.279 515.127 C 898.741 516.15 899.131 517.205 899.67 518.529 C 896.475 518.529 893.566 518.529 890.279 518.529 C 887.345 511.933 884.331 505.155 881.262 498.256 C 867.212 498.256 853.236 498.256 838.834 498.256 C 835.846 504.91 832.764 511.771 829.687 518.623 C 826.703 518.623 823.979 518.623 820.652 518.623 C 825.295 507.942 830.064 497.697 834.698 487.394 C 839.308 477.142 843.937 466.898 848.577 456.408 Z  M 857.189 457.041 C 852.334 467.877 847.48 478.713 842.591 489.627 C 846.923 490.314 874.792 490.142 877.466 489.405 C 872.576 478.533 867.701 467.693 862.708 456.332 C 861.899 454.555 861.09 452.778 860.085 450.573 C 859.22 452.436 858.584 453.75 858.002 455.088 C 857.782 455.595 857.687 456.156 857.189 457.041 Z " fill="rgb(253,249,249)"/><path d=" M 1031.327 467.915 C 1037.412 461.68 1043.501 455.449 1049.579 449.207 C 1051.821 446.905 1053.973 444.511 1056.302 442.303 C 1057.051 441.593 1058.214 441.004 1059.222 440.943 C 1062.187 440.765 1065.169 440.88 1068.986 440.88 C 1060.033 450.42 1051.124 459.051 1042.455 468.192 C 1040.292 470.505 1038.218 472.622 1035.883 475.005 C 1047.243 489.314 1058.627 503.652 1070.523 518.635 C 1066.578 518.805 1063.312 518.891 1060.086 518.59 C 1059.202 518.508 1058.319 517.267 1057.629 516.403 C 1049.111 505.723 1040.63 495.014 1032.135 484.316 C 1031.356 483.335 1030.544 482.38 1029.596 481.229 C 1028.728 482.016 1027.957 482.654 1027.257 483.361 C 1023.701 486.948 1020.298 490.701 1016.573 494.102 C 1013.919 496.525 1012.584 499.07 1012.897 502.778 C 1013.243 506.882 1012.976 511.038 1012.976 515.172 C 1012.976 516.286 1012.976 517.4 1012.976 518.593 C 1009.913 518.593 1007.309 518.593 1004.229 518.593 C 1004.229 501.163 1004.229 483.871 1004.166 466.278 C 1004.154 459.24 1004.207 452.503 1004.255 445.767 C 1004.266 444.295 1004.257 442.822 1004.257 441.114 C 1007.094 441.114 1009.765 441.114 1012.877 441.114 C 1012.908 449.363 1012.94 457.645 1012.978 466.546 C 1012.998 473.451 1013.012 479.737 1013.036 486.023 C 1013.036 486.103 1013.156 486.201 1013.242 486.259 C 1013.328 486.316 1013.44 486.334 1013.06 486.201 C 1016.302 483.175 1019.465 480.383 1022.438 477.403 C 1025.498 474.336 1028.372 471.085 1031.327 467.915 Z " fill="rgb(253,251,252)"/><path d=" M 98.051 493.364 C 98.051 501.932 98.051 510.158 98.051 518.554 C 95.035 518.554 92.445 518.554 89.603 518.554 C 89.603 492.752 89.603 467.016 89.603 440.881 C 90.954 440.881 92.295 440.881 93.636 440.881 C 94.988 440.881 96.339 440.881 98.098 440.881 C 98.098 452.506 98.098 463.796 98.098 475.202 C 113.182 475.202 127.845 475.202 142.994 475.202 C 143.195 471.462 143.061 467.721 143.085 463.99 C 143.11 460.204 143.091 456.417 143.091 452.631 C 143.091 448.862 143.091 445.094 143.091 441.105 C 145.995 441.105 148.674 441.105 151.573 441.105 C 151.573 466.912 151.573 492.644 151.573 518.513 C 150.828 518.6 150.278 518.714 149.727 518.72 C 147.68 518.742 145.632 518.729 143.171 518.729 C 143.171 506.99 143.171 495.481 143.171 483.788 C 127.999 483.788 113.246 483.788 98.051 483.788 C 98.051 486.894 98.051 489.957 98.051 493.364 Z " fill="rgb(255,254,254)"/><path d=" M 584.81 439.61 C 585.356 439.659 585.555 439.702 585.852 439.684 C 586.819 439.893 587.69 440.164 588.579 440.35 C 596.452 442.003 603.066 445.887 608.912 451.781 C 606.955 453.927 605.051 456.015 603.014 458.25 C 601.742 457.2 600.607 456.256 599.463 455.322 C 593.393 450.368 586.548 447.568 578.605 447.66 C 566.426 447.802 557.399 453.338 552.008 464.083 C 546.494 475.074 546.862 486.328 552.94 497.056 C 561.101 511.46 579.402 516.286 593.924 507.969 C 597.28 506.048 600.275 503.498 603.801 500.975 C 605.432 502.527 607.291 504.298 609.422 506.327 C 605.47 510.53 601.24 513.948 596.197 516.252 C 573.051 526.825 543.755 515.586 539.592 485.984 C 536.403 463.316 549.692 446.698 566.069 441.34 C 572.087 439.37 578.242 439.3 584.81 439.61 Z " fill="rgb(254,249,249)"/><path d=" M 46.186 492.667 C 46.186 501.469 46.186 509.927 46.186 518.558 C 43.229 518.558 40.63 518.558 37.564 518.558 C 37.363 510.942 37.497 503.306 37.473 495.674 C 37.449 487.988 37.468 480.302 37.468 472.616 C 37.468 464.937 37.468 457.259 37.468 449.076 C 32.975 449.064 28.662 449.049 24.35 449.044 C 20.125 449.038 15.9 449.042 11.415 449.042 C 11.415 446.305 11.415 443.854 11.415 441.393 C 13.893 440.754 67.446 440.567 72.256 441.211 C 72.256 443.647 72.256 446.115 72.256 448.994 C 63.642 448.994 55.101 448.994 46.186 448.994 C 46.186 463.708 46.186 478.015 46.186 492.667 Z " fill="rgb(254,251,251)"/><path d=" M 371.815 514.63 C 371.815 489.973 371.815 465.65 371.815 441.103 C 374.734 441.103 377.427 441.103 380.532 441.103 C 380.532 464.144 380.532 487.158 380.532 510.463 C 395.245 510.463 409.553 510.463 424.101 510.463 C 424.101 513.305 424.101 515.852 424.101 518.568 C 406.757 518.568 389.576 518.568 371.987 518.568 C 371.93 517.373 371.873 516.168 371.815 514.63 Z " fill="rgb(254,252,252)"/><path d=" M 440.709 490.6 C 440.709 473.964 440.709 457.673 440.709 441.13 C 443.567 441.13 446.254 441.13 449.356 441.13 C 449.356 464.11 449.356 487.117 449.356 510.41 C 464.072 510.41 478.382 510.41 492.964 510.41 C 492.964 513.244 492.964 515.793 492.964 518.54 C 475.629 518.54 458.36 518.54 440.709 518.54 C 440.709 509.245 440.709 500.095 440.709 490.6 Z " fill="rgb(254,252,252)"/><path d=" M 73.136 690.415 C 73.05 696.923 72.964 703.431 72.876 710.076 C 70.811 710.076 69.012 710.076 66.966 709.844 C 66.757 700.812 66.81 692.012 66.83 683.212 C 66.849 675.095 66.834 666.978 66.834 658.861 C 66.834 657.744 66.834 656.627 66.834 655.144 C 68.718 655.144 70.318 654.951 71.838 655.219 C 72.709 655.373 73.613 656.14 74.216 656.868 C 76.693 659.861 79.06 662.945 81.665 666.103 C 84.002 669.041 86.1 671.903 88.288 674.695 C 94.438 682.538 100.625 690.352 107.169 698.65 C 107.77 694.656 107.401 691.17 107.467 687.711 C 107.537 684.039 107.483 680.364 107.483 676.69 C 107.483 673.131 107.483 669.572 107.483 666.013 C 107.483 662.486 107.483 658.959 107.483 655.284 C 109.641 655.284 111.431 655.284 113.426 655.284 C 113.426 673.551 113.426 691.735 113.426 709.899 C 110.305 710.927 108.291 709.946 106.341 707.423 C 97.639 696.162 88.735 685.057 79.64 673.543 C 77.438 670.78 75.685 668.207 73.136 665.593 C 73.136 674.321 73.136 682.368 73.136 690.415 Z " fill="rgb(249,247,249)"/><path d=" M 1009.667 662.376 C 1013.692 666.582 1016.533 671.142 1017.689 676.744 C 1020.951 692.556 1010.841 707.418 994.863 709.637 C 989.902 710.326 984.814 710.126 979.781 710.254 C 976.597 710.335 973.409 710.269 969.781 710.269 C 969.781 693.528 969.781 677.068 969.718 660.28 C 969.747 658.479 969.839 657.005 969.945 655.299 C 970.987 655.241 971.988 655.14 972.988 655.137 C 978.377 655.121 983.765 655.167 989.153 655.12 C 996.788 655.055 1003.578 657.332 1009.667 662.376 Z  M 987.462 704.41 C 989.064 704.338 990.671 704.321 992.267 704.185 C 1002.941 703.275 1010.781 695.322 1011.737 684.468 C 1012.673 673.852 1006.036 664.242 995.777 661.767 C 989.386 660.225 982.847 660.934 976.264 660.815 C 976.264 675.524 976.264 689.884 976.264 704.41 C 979.927 704.41 983.356 704.41 987.462 704.41 Z " fill="rgb(248,248,250)"/><path d=" M 949.913 658.776 C 954.28 662.442 956.41 666.928 956.089 672.484 C 955.715 678.94 952.518 683.477 946.667 686.125 C 945.112 686.829 943.437 687.27 941.435 687.965 C 946.889 695.266 952.26 702.456 958.095 710.267 C 955.945 710.267 954.504 710.152 953.089 710.295 C 951.165 710.489 949.934 709.766 948.799 708.195 C 944.702 702.527 940.388 697.014 936.323 691.324 C 935.057 689.554 933.773 688.746 931.54 688.853 C 927.443 689.051 923.33 688.91 918.845 688.91 C 918.845 696.086 918.845 703.013 918.845 710.097 C 916.68 710.097 914.896 710.097 912.592 710.097 C 912.592 692.323 912.592 674.594 912.527 656.577 C 913.066 655.906 913.669 655.192 914.274 655.189 C 922.761 655.151 931.252 655.108 939.736 655.293 C 943.338 655.371 946.668 656.724 949.913 658.776 Z  M 945.945 663.668 C 943.247 661.696 940.133 661.007 936.887 660.892 C 933.682 660.778 930.472 660.821 927.264 660.808 C 924.548 660.797 921.832 660.806 919.039 660.806 C 919.039 668.462 919.039 675.731 919.039 683.492 C 925.852 683.292 932.461 683.125 939.066 682.874 C 940.071 682.836 941.091 682.493 942.053 682.149 C 950.304 679.198 952.374 670.397 945.945 663.668 Z " fill="rgb(249,249,251)"/><path d=" M 20.826 679.359 C 30.66 679.441 40.177 679.441 49.976 679.441 C 49.976 681.406 49.976 683.142 49.976 685.237 C 40.08 685.237 30.245 685.237 20.215 685.237 C 20.215 691.725 20.215 697.868 20.215 704.444 C 31.499 704.444 42.685 704.444 54.046 704.444 C 54.046 706.532 54.046 708.191 54.046 710.059 C 40.671 710.059 27.424 710.059 13.982 710.059 C 13.982 691.811 13.982 673.725 13.982 655.384 C 27.152 655.384 40.273 655.384 53.583 655.384 C 53.583 657.082 53.583 658.735 53.583 660.685 C 42.476 660.685 31.497 660.685 20.353 660.685 C 20.216 661.714 20.032 662.475 20.027 663.238 C 19.999 667.716 19.987 672.194 20.035 676.672 C 20.045 677.542 20.344 678.409 20.826 679.359 Z " fill="rgb(254,248,249)"/><path d=" M 1037.794 664.047 C 1034.466 668.808 1035.511 673.907 1040.67 676.376 C 1043.529 677.744 1046.726 678.406 1049.77 679.389 C 1053.466 680.583 1057.291 681.483 1060.832 683.032 C 1072.091 687.956 1070.314 702.865 1062.017 707.716 C 1059.181 709.374 1056.192 710.415 1052.966 710.735 C 1043.307 711.696 1034.932 708.812 1027.479 702.099 C 1028.728 700.593 1029.866 699.221 1031.207 697.605 C 1032.296 698.43 1033.262 699.163 1034.23 699.894 C 1040.108 704.339 1046.675 706.143 1053.966 704.839 C 1059.151 703.911 1062.258 700.417 1062.348 695.862 C 1062.411 692.66 1061.143 690.159 1058.27 688.889 C 1055.254 687.555 1052.059 686.607 1048.905 685.609 C 1045.852 684.643 1042.662 684.057 1039.689 682.903 C 1030.908 679.493 1027.983 673.34 1030.609 663.991 C 1035.866 654.815 1044.176 653.553 1053.334 654.78 C 1058.425 655.462 1062.946 657.654 1066.991 661.171 C 1066.026 662.537 1065.111 663.832 1064.103 665.353 C 1063.625 665.584 1063.239 665.59 1062.534 665.347 C 1057.483 661.47 1052.159 659.66 1046.186 660.097 C 1042.928 660.335 1039.852 661.162 1037.794 664.047 Z " fill="rgb(249,248,249)"/><path d=" M 510.511 478.888 C 510.511 466.172 510.511 453.8 510.511 441.15 C 513.478 441.15 516.245 441.15 519.193 441.15 C 519.193 466.881 519.193 492.531 519.193 518.463 C 516.43 518.463 513.657 518.463 510.511 518.463 C 510.511 505.317 510.511 492.275 510.511 478.888 Z " fill="rgb(253,248,248)"/><path d=" M 833.458 668.898 C 835.064 664.212 836.599 659.787 838.16 655.283 C 840.357 655.283 842.378 655.283 844.768 655.283 C 838.198 673.756 831.717 691.977 825.192 710.324 C 823.421 710.324 821.736 710.324 819.685 710.324 C 814.819 696.061 809.915 681.685 805.011 667.308 C 799.181 681.498 794.555 696.027 789.442 710.398 C 787.631 710.398 786.042 710.398 784.098 710.398 C 777.605 692.15 771.094 673.851 764.492 655.296 C 766.859 655.296 768.891 655.296 771.34 655.296 C 776.435 670.042 781.581 684.937 786.728 699.831 C 786.918 699.85 787.109 699.868 787.3 699.887 C 792.211 685.073 797.123 670.259 802.081 655.304 C 803.816 655.304 805.503 655.304 807.414 655.304 C 812.299 670.047 817.189 684.807 822.08 699.566 C 826.517 689.604 829.722 679.296 833.458 668.898 Z " fill="rgb(248,248,250)"/><path d=" M 502.191 703.452 C 502.191 705.831 502.191 707.872 502.191 709.85 C 498.904 710.891 496.879 709.979 494.918 707.447 C 484.801 694.389 474.498 681.474 464.253 668.514 C 463.572 667.652 462.835 666.834 461.55 665.318 C 461.55 680.762 461.55 695.351 461.55 710.102 C 459.389 710.102 457.61 710.102 455.612 710.102 C 455.612 691.813 455.612 673.639 455.612 655.28 C 456.724 655.226 457.737 655.238 458.733 655.115 C 460.628 654.883 461.911 655.578 463.071 657.146 C 465.866 660.926 468.862 664.558 471.773 668.252 C 479.087 677.532 486.399 686.815 493.715 696.095 C 494.266 696.793 494.843 697.471 495.875 698.725 C 495.875 683.94 495.875 669.815 495.875 655.41 C 498.068 655.41 499.929 655.41 502.191 655.41 C 502.191 671.289 502.191 687.201 502.191 703.452 Z " fill="rgb(247,248,249)"/><path d=" M 388.973 710.202 C 384.117 711.165 381.114 709.357 378.597 705.376 C 375.42 700.354 371.472 695.826 368.024 690.965 C 366.881 689.353 365.638 688.821 363.744 688.874 C 359.527 688.992 355.305 688.911 350.701 688.911 C 350.701 696.119 350.701 703.048 350.701 710.115 C 348.527 710.115 346.74 710.115 344.715 710.115 C 344.715 691.868 344.715 673.709 344.715 655.579 C 344.957 655.44 345.145 655.237 345.333 655.236 C 353.815 655.209 362.298 655.115 370.778 655.249 C 372.908 655.283 375.101 655.839 377.137 656.531 C 384.259 658.95 387.962 664.184 387.972 671.517 C 387.982 678.869 384.279 684.143 377.3 686.675 C 376.12 687.103 374.905 687.434 373.415 687.901 C 374.219 689.024 374.915 690.04 375.654 691.025 C 379.781 696.527 383.939 702.007 388.03 707.536 C 388.588 708.289 388.836 709.273 388.973 710.202 Z  M 350.696 679.552 C 350.747 680.753 350.797 681.954 350.851 683.216 C 357.113 683.216 362.949 683.301 368.78 683.179 C 371.539 683.122 374.229 682.461 376.622 680.944 C 380.505 678.482 382.09 674.916 381.618 670.403 C 381.178 666.201 378.793 663.479 374.909 662.095 C 373.306 661.525 371.586 661.008 369.909 660.973 C 363.729 660.847 357.543 660.929 351.36 660.957 C 351.192 660.958 351.025 661.233 350.696 661.523 C 350.696 667.219 350.696 673.056 350.696 679.552 Z " fill="rgb(248,249,250)"/><path d=" M 664.025 686.881 C 662.835 687.244 661.89 687.542 660.647 687.933 C 666.161 695.293 671.51 702.432 677.198 710.023 C 674.586 710.439 672.35 710.411 670.195 710.115 C 669.4 710.005 668.659 708.872 668.06 708.079 C 663.775 702.408 659.467 696.752 655.319 690.981 C 654.174 689.387 652.954 688.816 651.048 688.872 C 646.829 688.997 642.604 688.911 637.997 688.911 C 637.997 696.108 637.997 703.037 637.997 710.11 C 635.824 710.11 634.037 710.11 632.006 710.11 C 632.006 691.876 632.006 673.716 632.006 655.58 C 632.239 655.444 632.426 655.238 632.614 655.238 C 641.097 655.21 649.58 655.147 658.062 655.232 C 659.868 655.25 661.715 655.648 663.461 656.154 C 670.536 658.202 674.901 663.454 675.242 670.141 C 675.651 678.157 672.525 683.228 665.217 686.404 C 664.901 686.541 664.586 686.678 664.025 686.881 Z  M 642.476 683.318 C 646.373 683.317 650.27 683.37 654.166 683.298 C 657.508 683.237 660.806 682.828 663.748 681.037 C 667.807 678.566 669.423 674.891 668.889 670.245 C 668.407 666.039 665.963 663.281 662.038 662.069 C 659.667 661.336 657.119 660.978 654.631 660.861 C 650.515 660.668 646.382 660.806 642.256 660.805 C 640.921 660.805 639.585 660.805 638.217 660.805 C 638.217 668.51 638.217 675.77 638.217 683.318 C 639.574 683.318 640.697 683.318 642.476 683.318 Z " fill="rgb(248,249,250)"/><path d=" M 201.754 655.131 C 205.511 655.442 209.043 655.3 212.317 656.15 C 221.635 658.571 226.27 666.834 223.875 676.067 C 222.597 680.997 219.382 684.226 214.817 686.199 C 213.351 686.834 211.795 687.261 209.763 687.96 C 215.229 695.261 220.596 702.429 226.437 710.231 C 223.667 710.231 221.541 710.414 219.476 710.14 C 218.661 710.032 217.85 709.002 217.26 708.224 C 212.963 702.551 208.652 696.886 204.51 691.101 C 203.293 689.402 201.994 688.791 199.953 688.865 C 195.844 689.015 191.725 688.91 187.222 688.91 C 187.222 696.055 187.222 702.984 187.222 710.086 C 185.05 710.086 183.264 710.086 181.223 710.086 C 181.223 691.888 181.223 673.709 181.223 655.131 C 187.946 655.131 194.679 655.131 201.754 655.131 Z  M 218.152 671.509 C 217.909 667.089 215.846 663.887 211.698 662.233 C 210.225 661.646 208.62 661.094 207.065 661.063 C 200.57 660.934 194.071 661.008 187.594 661.008 C 186.916 664.82 187.044 680.697 187.866 683.504 C 194.378 683.298 201.026 683.417 207.602 682.786 C 213.964 682.176 217.246 678.438 218.152 671.509 Z " fill="rgb(249,249,250)"/><path d=" M 518.09 702.768 C 518.09 686.832 518.09 671.238 518.09 655.388 C 531.423 655.388 544.544 655.388 557.919 655.388 C 557.969 656.228 558.056 657.104 558.063 657.981 C 558.069 658.769 557.988 659.557 557.923 660.731 C 546.776 660.731 535.713 660.731 524.487 660.731 C 524.487 667.047 524.487 672.973 524.487 679.151 C 527.7 679.825 530.999 679.377 534.263 679.455 C 537.59 679.534 540.92 679.472 544.249 679.472 C 547.554 679.472 550.86 679.472 554.352 679.472 C 554.352 681.451 554.352 683.12 554.352 685.123 C 544.484 685.123 534.655 685.123 524.574 685.123 C 524.574 691.679 524.574 697.909 524.574 704.526 C 535.845 704.526 547.041 704.526 558.363 704.526 C 558.363 706.573 558.363 708.236 558.363 710.081 C 544.946 710.081 531.698 710.081 518.09 710.081 C 518.09 707.641 518.09 705.375 518.09 702.768 Z " fill="rgb(248,249,250)"/><path d=" M 256.193 685.176 C 252.209 685.176 248.569 685.176 244.776 685.176 C 244.776 691.757 244.776 697.907 244.776 704.461 C 256.073 704.461 267.257 704.461 278.629 704.461 C 278.629 706.517 278.629 708.175 278.629 710.051 C 265.312 710.051 252.063 710.051 238.597 710.051 C 238.597 691.884 238.597 673.801 238.597 655.699 C 241.006 654.954 269.421 654.658 278.135 655.326 C 278.209 656.151 278.315 657.018 278.357 657.888 C 278.395 658.682 278.365 659.481 278.365 660.665 C 267.138 660.665 256.072 660.665 244.81 660.665 C 244.81 667.065 244.81 673.08 244.81 679.414 C 254.74 679.414 264.558 679.414 274.605 679.414 C 274.605 681.377 274.605 683.034 274.605 685.176 C 268.608 685.176 262.573 685.176 256.193 685.176 Z " fill="rgb(248,249,250)"/><path d=" M 419.471 679.473 C 425.883 679.473 431.95 679.473 438.268 679.473 C 438.268 681.364 438.268 683.028 438.268 685.016 C 428.483 685.016 418.655 685.016 408.587 685.016 C 408.587 691.576 408.587 697.823 408.587 704.488 C 419.731 704.488 430.899 704.488 442.166 704.488 C 442.166 706.578 442.166 708.254 442.166 710.098 C 428.854 710.098 415.707 710.098 402.34 710.098 C 402.34 691.819 402.34 673.646 402.34 655.33 C 415.554 655.33 428.68 655.33 441.954 655.33 C 441.954 657.091 441.954 658.658 441.954 660.691 C 430.867 660.846 419.802 660.674 408.547 660.789 C 408.547 667.034 408.547 673.051 408.547 679.473 C 412.092 679.473 415.61 679.473 419.471 679.473 Z " fill="rgb(249,249,251)"/><path d=" M 870.724 695.412 C 867.281 695.412 864.168 695.604 861.09 695.354 C 858.447 695.139 857.21 696.222 856.288 698.564 C 854.742 702.491 852.887 706.296 851.187 710.097 C 849.07 710.097 847.172 710.097 844.733 710.097 C 853.205 691.434 861.518 673.121 869.841 654.787 C 871.882 654.787 873.688 654.787 875.819 654.787 C 884.11 673.041 892.433 691.366 900.915 710.04 C 898.53 710.04 896.545 710.04 894.169 710.04 C 892.089 705.396 889.902 700.516 887.616 695.412 C 882.042 695.412 876.555 695.412 870.724 695.412 Z  M 879.724 677.603 C 877.503 672.667 875.282 667.732 872.747 662.1 C 868.388 671.752 864.391 680.603 860.333 689.589 C 868.768 689.589 876.703 689.589 885.109 689.589 C 883.28 685.516 881.609 681.797 879.724 677.603 Z " fill="rgb(247,248,249)"/><path d=" M 719.179 686.926 C 724.112 676.053 728.953 665.423 733.803 654.77 C 735.788 654.77 737.61 654.77 739.745 654.77 C 748.034 673.017 756.359 691.344 764.844 710.023 C 762.498 710.023 760.52 710.023 758.129 710.023 C 757.444 708.542 756.616 706.811 755.837 705.059 C 754.766 702.65 753.658 700.253 752.708 697.796 C 752.05 696.09 751.119 695.337 749.154 695.364 C 740.779 695.479 732.401 695.463 724.026 695.373 C 722.243 695.353 721.337 696.016 720.671 697.585 C 718.884 701.792 716.979 705.95 715.112 710.149 C 712.984 710.149 711.062 710.149 708.657 710.149 C 712.203 702.336 715.645 694.752 719.179 686.926 Z  M 744.194 678.799 C 741.781 673.442 739.368 668.086 736.679 662.115 C 732.409 671.672 728.231 680.467 724.36 689.563 C 732.807 689.563 740.734 689.563 749.01 689.563 C 747.387 685.905 745.913 682.582 744.194 678.799 Z " fill="rgb(247,248,249)"/><path d=" M 291.431 698.657 C 291.431 684.098 291.431 669.882 291.431 655.452 C 292.347 655.331 293.098 655.148 293.85 655.145 C 300.391 655.123 306.942 654.931 313.471 655.222 C 316.614 655.362 319.875 656.023 322.804 657.165 C 328.891 659.537 332.218 664.265 332.745 670.824 C 333.306 677.801 330.987 683.457 324.887 687.246 C 320.981 689.672 316.651 690.647 312.093 690.678 C 308.305 690.704 304.518 690.675 300.731 690.694 C 299.831 690.699 298.932 690.801 297.728 690.878 C 297.728 697.291 297.728 703.562 297.728 710.046 C 295.546 710.046 293.677 710.046 291.431 710.046 C 291.431 706.283 291.431 702.643 291.431 698.657 Z  M 325.542 667.819 C 323.82 664.227 320.819 662.26 317.058 661.488 C 310.734 660.191 304.351 660.962 297.843 660.876 C 297.843 669.028 297.843 676.862 297.843 684.99 C 301.905 684.99 305.776 685.009 309.648 684.982 C 311.364 684.97 313.107 685.039 314.791 684.775 C 325.442 683.106 328.19 675.072 325.542 667.819 Z " fill="rgb(249,249,250)"/><path d=" M 571.073 693.687 C 570.837 690.542 570.501 687.69 570.476 684.834 C 570.402 676.234 570.45 667.632 570.45 659.031 C 570.45 657.901 570.45 656.771 570.45 655.387 C 572.522 655.387 574.391 655.387 576.503 655.387 C 576.558 656.334 576.666 657.329 576.667 658.324 C 576.681 667.384 576.585 676.445 576.727 685.502 C 576.773 688.45 577.108 691.472 577.862 694.315 C 579.445 700.282 583.469 703.818 589.577 705.037 C 592.802 705.681 595.966 705.577 599.111 704.767 C 605.429 703.139 609.563 697.898 610.25 690.622 C 610.422 688.8 610.399 686.957 610.402 685.123 C 610.416 676.407 610.408 667.692 610.408 658.976 C 610.408 657.849 610.408 656.722 610.408 655.365 C 612.519 655.365 614.389 655.365 616.485 655.365 C 616.535 656.266 616.626 657.151 616.627 658.035 C 616.637 667.783 616.694 677.531 616.593 687.278 C 616.566 689.893 616.336 692.574 615.708 695.103 C 613.644 703.4 608.479 708.721 599.996 710.559 C 595.212 711.595 590.408 711.554 585.702 710.216 C 578.802 708.254 574.25 703.729 571.925 696.962 C 571.591 695.989 571.382 694.974 571.073 693.687 Z " fill="rgb(248,249,250)"/><path d=" M 151.474 655.134 C 157.408 655.134 162.999 655.134 168.73 655.134 C 168.73 657.134 168.73 658.794 168.73 660.706 C 162.652 660.706 156.722 660.706 150.297 660.706 C 150.143 665.002 150.241 669.081 150.224 673.152 C 150.206 677.282 150.22 681.411 150.22 685.541 C 150.22 689.556 150.22 693.571 150.22 697.586 C 150.22 701.689 150.22 705.793 150.22 710.078 C 148.12 710.078 146.329 710.078 144.025 710.078 C 144.017 704.651 144.006 699.194 144.002 693.738 C 143.998 688.347 144.001 682.955 144.001 677.564 C 144.001 672.089 144.001 666.614 144.001 660.891 C 137.736 660.891 131.809 660.891 125.621 660.891 C 125.621 658.993 125.621 657.341 125.621 655.208 C 129.779 655.053 134.091 655.156 138.396 655.138 C 142.64 655.12 146.885 655.134 151.474 655.134 Z " fill="rgb(250,250,251)"/><path d=" M 777.097 381.158 C 779.083 387.106 778.487 392.933 778.377 398.661 C 769.602 401.714 737.859 398.474 722.668 393.152 C 723.224 388.486 723.203 383.631 724.861 379.101 C 726.436 374.796 729.541 371.782 734.089 370.555 C 746.301 367.258 758.162 368.48 769.666 373.542 C 773.025 375.02 775.62 377.392 777.097 381.158 Z " fill="rgb(253,253,253)"/><path d=" M 964.742 373.21 C 966.294 373.409 967.577 373.455 968.776 373.795 C 976.363 375.945 978.808 383.873 973.838 390.076 C 973.624 390.344 973.42 390.619 973.085 391.055 C 973.513 391.514 973.915 392.019 974.389 392.443 C 978.278 395.918 978.898 400.255 977.554 404.999 C 976.254 409.589 972.87 412.307 968.361 412.639 C 962.116 413.098 955.812 412.754 949.375 412.754 C 949.375 399.688 949.375 386.658 949.375 373.193 C 954.423 373.193 959.429 373.193 964.742 373.21 Z  M 955.897 398.673 C 955.914 401.359 955.931 404.044 955.947 406.666 C 959.748 406.666 963.063 406.909 966.325 406.599 C 969.792 406.269 971.315 404.399 971.416 401.265 C 971.526 397.855 970.117 395.702 966.632 395.29 C 963.184 394.882 959.651 395.201 956.039 395.201 C 955.989 396.199 955.943 397.099 955.897 398.673 Z  M 955.904 382.852 C 955.904 384.763 955.904 386.673 955.904 388.731 C 959.236 388.731 962.191 388.883 965.123 388.69 C 968.293 388.481 969.89 386.721 969.87 383.947 C 969.85 381.347 968.3 379.488 965.38 379.25 C 962.345 379.003 959.274 379.195 956.089 379.195 C 956.015 380.39 955.96 381.285 955.904 382.852 Z " fill="rgb(249,249,251)"/><path d=" M 834.211 393.403 C 836.785 399.918 839.28 406.179 841.904 412.768 C 839.562 412.768 837.458 412.768 834.945 412.768 C 834.09 410.632 833.033 408.246 832.184 405.787 C 831.586 404.055 830.735 403.17 828.735 403.255 C 825.073 403.409 821.397 403.398 817.734 403.258 C 815.886 403.188 815.067 403.989 814.509 405.594 C 813.653 408.058 812.642 410.469 811.691 412.92 C 809.401 412.92 807.369 412.92 804.741 412.92 C 810.037 399.518 815.219 386.405 820.383 373.337 C 822.474 373.337 824.274 373.337 826.217 373.337 C 828.876 379.993 831.503 386.571 834.211 393.403 Z  M 825.905 397.346 C 826.761 397.234 827.617 397.123 828.779 396.971 C 826.969 392.379 825.518 388.055 823.247 383.955 C 821.386 388.313 819.286 392.419 817.985 397.346 C 820.77 397.346 823.035 397.346 825.905 397.346 Z " fill="rgb(249,250,251)"/><path d=" M 728.037 401.19 C 742.089 404.999 756.114 407.06 770.395 407.337 C 771.083 407.351 771.772 407.333 772.459 407.31 C 777.151 407.155 777.67 406.706 778.509 402.148 C 778.545 401.952 778.757 401.788 779.087 401.333 C 782.38 402.463 785.555 403.94 787.831 406.808 C 790.528 410.207 789.647 413.669 785.715 415.515 C 782.366 417.087 778.794 417.25 775.267 416.558 C 766.391 414.817 757.541 412.94 748.701 411.022 C 740.87 409.322 733.086 407.396 725.238 405.782 C 722.913 405.304 720.434 405.631 718.041 405.422 C 716.345 405.273 714.601 405.051 713.01 404.49 C 710.755 403.695 709.786 401.868 710.213 399.961 C 710.543 398.483 711.945 397.62 714.426 397.941 C 717.253 398.307 720.044 399.001 722.828 399.65 C 724.498 400.04 726.124 400.616 728.037 401.19 Z " fill="rgb(248,248,250)"/><path d=" M 1047.432 373.274 C 1047.937 374.393 1048.326 375.448 1048.338 376.507 C 1048.401 382.014 1048.367 387.521 1048.367 393.511 C 1049.356 392.825 1050.088 392.408 1050.714 391.869 C 1053.063 389.846 1055.469 387.877 1057.675 385.705 C 1059.196 384.208 1060.827 383.613 1062.913 383.804 C 1064.391 383.939 1065.892 383.83 1067.646 383.83 C 1067.105 385.887 1065.326 386.657 1064.144 387.888 C 1062.874 389.211 1061.473 390.408 1060.122 391.652 C 1058.778 392.89 1057.426 394.118 1055.746 395.653 C 1060.025 401.278 1064.226 406.8 1068.609 412.56 C 1066.078 413.458 1063.724 413.039 1061.435 412.884 C 1060.831 412.843 1060.212 411.935 1059.732 411.321 C 1057.539 408.519 1055.404 405.672 1053.226 402.858 C 1052.541 401.972 1051.786 401.14 1051.1 400.327 C 1048.979 401.256 1048.204 402.636 1048.33 404.755 C 1048.487 407.369 1048.368 410 1048.368 412.832 C 1046.231 412.832 1044.328 412.832 1042.198 412.832 C 1042.198 399.78 1042.198 386.747 1042.198 373.212 C 1043.805 373.212 1045.474 373.212 1047.432 373.274 Z " fill="rgb(249,249,251)"/><path d=" M 913.095 397.905 C 915.926 395.971 918.911 395.245 921.996 394.827 C 923.919 394.566 925.844 394.327 927.749 394.08 C 927.824 391.13 926.87 389.866 924.183 389.246 C 920.457 388.384 918.28 389.646 916.093 394.104 C 914.405 393.826 912.642 393.535 910.714 393.216 C 910.824 389.993 912.358 387.708 914.679 385.912 C 918.857 382.679 925.849 382.596 930.188 385.615 C 933.042 387.601 934.496 390.456 934.592 393.783 C 934.773 400.058 934.644 406.342 934.644 412.835 C 932.667 412.835 930.871 412.835 928.835 412.835 C 928.586 412.362 928.242 411.705 927.819 410.901 C 924.994 412.799 922.022 413.806 918.7 413.441 C 914.906 413.025 911.833 411.43 910.472 407.681 C 909.144 404.022 909.796 400.691 913.095 397.905 Z  M 922.616 400.11 C 921.411 400.436 920.157 400.641 919.014 401.114 C 916.935 401.973 916.002 403.381 916.246 404.942 C 916.506 406.607 918.1 407.802 920.283 407.967 C 925.04 408.328 927.893 405.435 928.208 399.598 C 926.506 399.727 924.842 399.853 922.616 400.11 Z " fill="rgb(247,248,249)"/><path d=" M 1005.943 411.524 C 1005.734 412.186 1005.56 412.845 1005.322 412.87 C 1003.962 413.01 1002.555 413.189 1001.23 412.966 C 1000.47 412.839 999.834 411.976 998.836 411.21 C 996.478 412.673 993.47 413.848 990.038 413.447 C 987.565 413.159 985.367 412.319 983.628 410.503 C 979.926 406.635 980.612 400.11 985.317 397.496 C 987.748 396.146 990.646 395.564 993.394 394.879 C 995.365 394.388 997.438 394.302 999.461 394.036 C 999.029 390.837 998.096 389.764 995.404 389.209 C 991.724 388.45 989.894 389.547 987.394 394.105 C 985.779 393.831 984.113 393.549 982.468 393.27 C 982.286 389.16 985.183 385.424 989.66 384.057 C 992.693 383.13 995.766 383.178 998.778 384.212 C 1003.282 385.758 1005.84 389.183 1005.921 394.049 C 1006.017 399.773 1005.947 405.501 1005.943 411.524 Z  M 997.221 399.667 C 994.883 400.17 992.471 400.46 990.228 401.238 C 988.122 401.969 987.385 403.52 987.804 405.232 C 988.254 407.071 989.684 407.715 991.371 407.937 C 996.279 408.584 999.658 405.219 999.451 399.72 C 998.924 399.688 998.38 399.654 997.221 399.667 Z " fill="rgb(249,249,250)"/><path d=" M 1017.595 405.18 C 1017.595 407.909 1017.595 410.301 1017.595 412.868 C 1015.432 412.868 1013.532 412.868 1011.454 412.868 C 1011.454 403.25 1011.454 393.784 1011.454 384.074 C 1013.386 384.074 1015.274 384.074 1017.351 384.074 C 1017.466 384.726 1017.598 385.479 1017.765 386.426 C 1018.193 386.261 1018.647 386.192 1018.965 385.947 C 1021.979 383.621 1025.344 382.954 1029.027 383.758 C 1033.259 384.681 1036.549 388.067 1036.691 392.37 C 1036.913 399.12 1036.75 405.883 1036.75 412.842 C 1034.7 412.842 1032.805 412.842 1030.569 412.842 C 1030.569 408.387 1030.571 404.061 1030.568 399.736 C 1030.566 398.13 1030.579 396.524 1030.537 394.919 C 1030.476 392.561 1029.615 390.631 1027.281 389.742 C 1024.794 388.796 1022.529 389.354 1020.615 391.161 C 1018.372 393.278 1017.812 396.098 1017.625 398.995 C 1017.5 400.937 1017.597 402.893 1017.595 405.18 Z " fill="rgb(249,249,251)"/><path d=" M 880.553 391.039 C 884.416 383.352 893.376 382.089 899.394 384.539 C 903.118 386.055 905.526 388.738 906.28 393.096 C 904.238 393.505 902.372 393.88 900.374 394.281 C 898.949 390.847 896.579 389.008 892.881 389.323 C 889.725 389.593 887.439 391.181 886.376 394.15 C 884.989 398.025 885.03 401.891 887.839 405.174 C 889.872 407.551 892.624 408.083 895.673 407.364 C 898.203 406.767 899.411 404.899 900.454 402.576 C 902.364 402.98 904.235 403.376 906.409 403.836 C 905.346 408.418 902.79 411.41 898.563 412.703 C 887.642 416.045 877.188 408.978 879.252 395.212 C 879.453 393.87 880.034 392.586 880.553 391.039 Z " fill="rgb(247,248,249)"/><path d=" M 851.557 400.349 C 851.557 404.688 851.557 408.683 851.557 412.857 C 849.418 412.857 847.521 412.857 845.436 412.857 C 845.436 399.718 845.436 386.713 845.436 373.449 C 847.284 373.449 849.161 373.449 851.557 373.449 C 851.557 382.263 851.557 391.134 851.557 400.349 Z " fill="rgb(251,251,252)"/><path d=" M 856.903 402.414 C 856.903 392.596 856.903 383.122 856.903 373.422 C 859.033 373.422 860.908 373.422 862.987 373.422 C 862.987 386.545 862.987 399.632 862.987 412.878 C 861.031 412.878 859.235 412.878 856.934 412.878 C 856.924 409.515 856.913 406.137 856.903 402.414 Z " fill="rgb(251,251,252)"/><path d=" M 868.465 398.971 C 868.465 393.835 868.465 389.042 868.465 384.043 C 870.606 384.043 872.484 384.043 874.583 384.043 C 874.583 393.568 874.583 403.028 874.583 412.766 C 872.678 412.766 870.704 412.766 868.465 412.766 C 868.465 408.226 868.465 403.771 868.465 398.971 Z " fill="rgb(249,250,251)"/><path d=" M 870.919 380.308 C 869.73 379.5 868.491 378.899 867.946 377.915 C 866.819 375.878 867.895 373.399 869.986 372.497 C 871.926 371.659 874.327 372.498 875.283 374.346 C 876.327 376.364 875.571 378.856 873.488 379.874 C 872.806 380.207 871.957 380.195 870.919 380.308 Z " fill="rgb(247,248,249)"/></g></g></svg>